<mxfile host="app.diagrams.net" modified="2023-05-03T18:38:40.339Z" agent="Mozilla/5.0 (Macintosh; Intel Mac OS X 10.15; rv:109.0) Gecko/20100101 Firefox/112.0" etag="FRnNqBtYpVLY2pVToxy7" version="21.2.3" type="device">
  <diagram id="C5RBs43oDa-KdzZeNtuy" name="Page-1">
    <mxGraphModel dx="1943" dy="978" grid="1" gridSize="10" guides="1" tooltips="1" connect="1" arrows="1" fold="1" page="1" pageScale="1" pageWidth="827" pageHeight="1169" math="0" shadow="0">
      <root>
        <mxCell id="WIyWlLk6GJQsqaUBKTNV-0" />
        <mxCell id="WIyWlLk6GJQsqaUBKTNV-1" parent="WIyWlLk6GJQsqaUBKTNV-0" />
        <mxCell id="nKKaLAvIPDA7G_cPr7YH-1" style="edgeStyle=orthogonalEdgeStyle;rounded=0;orthogonalLoop=1;jettySize=auto;html=1;exitX=0.5;exitY=1;exitDx=0;exitDy=0;" edge="1" parent="WIyWlLk6GJQsqaUBKTNV-1" source="WIyWlLk6GJQsqaUBKTNV-3" target="nKKaLAvIPDA7G_cPr7YH-0">
          <mxGeometry relative="1" as="geometry" />
        </mxCell>
        <mxCell id="WIyWlLk6GJQsqaUBKTNV-3" value="End user accesses solution through a web URL" style="rounded=1;whiteSpace=wrap;html=1;fontSize=12;glass=0;strokeWidth=1;shadow=0;" parent="WIyWlLk6GJQsqaUBKTNV-1" vertex="1">
          <mxGeometry x="160" y="80" width="130" height="50" as="geometry" />
        </mxCell>
        <mxCell id="nKKaLAvIPDA7G_cPr7YH-7" style="edgeStyle=orthogonalEdgeStyle;rounded=0;orthogonalLoop=1;jettySize=auto;html=1;exitX=0.5;exitY=1;exitDx=0;exitDy=0;entryX=0.5;entryY=0;entryDx=0;entryDy=0;" edge="1" parent="WIyWlLk6GJQsqaUBKTNV-1" source="nKKaLAvIPDA7G_cPr7YH-0" target="nKKaLAvIPDA7G_cPr7YH-2">
          <mxGeometry relative="1" as="geometry" />
        </mxCell>
        <mxCell id="nKKaLAvIPDA7G_cPr7YH-0" value="NGINX serves the request with a React application" style="rounded=1;whiteSpace=wrap;html=1;fontSize=12;glass=0;strokeWidth=1;shadow=0;" vertex="1" parent="WIyWlLk6GJQsqaUBKTNV-1">
          <mxGeometry x="160" y="190" width="130" height="50" as="geometry" />
        </mxCell>
        <mxCell id="nKKaLAvIPDA7G_cPr7YH-8" style="edgeStyle=orthogonalEdgeStyle;rounded=0;orthogonalLoop=1;jettySize=auto;html=1;exitX=0.5;exitY=1;exitDx=0;exitDy=0;" edge="1" parent="WIyWlLk6GJQsqaUBKTNV-1" source="nKKaLAvIPDA7G_cPr7YH-2" target="nKKaLAvIPDA7G_cPr7YH-3">
          <mxGeometry relative="1" as="geometry" />
        </mxCell>
        <mxCell id="nKKaLAvIPDA7G_cPr7YH-2" value="&lt;div&gt;React serves a&lt;/div&gt;&lt;div&gt;&amp;nbsp;login page&lt;/div&gt;" style="rounded=1;whiteSpace=wrap;html=1;fontSize=12;glass=0;strokeWidth=1;shadow=0;" vertex="1" parent="WIyWlLk6GJQsqaUBKTNV-1">
          <mxGeometry x="160" y="290" width="130" height="50" as="geometry" />
        </mxCell>
        <mxCell id="nKKaLAvIPDA7G_cPr7YH-9" style="edgeStyle=orthogonalEdgeStyle;rounded=0;orthogonalLoop=1;jettySize=auto;html=1;entryX=0;entryY=0.5;entryDx=0;entryDy=0;" edge="1" parent="WIyWlLk6GJQsqaUBKTNV-1" source="nKKaLAvIPDA7G_cPr7YH-3" target="nKKaLAvIPDA7G_cPr7YH-4">
          <mxGeometry relative="1" as="geometry" />
        </mxCell>
        <mxCell id="nKKaLAvIPDA7G_cPr7YH-3" value="User authentication using Micronaut API to validate credentials" style="rounded=1;whiteSpace=wrap;html=1;fontSize=12;glass=0;strokeWidth=1;shadow=0;" vertex="1" parent="WIyWlLk6GJQsqaUBKTNV-1">
          <mxGeometry x="160" y="390" width="130" height="50" as="geometry" />
        </mxCell>
        <mxCell id="nKKaLAvIPDA7G_cPr7YH-10" value="" style="edgeStyle=orthogonalEdgeStyle;rounded=0;orthogonalLoop=1;jettySize=auto;html=1;" edge="1" parent="WIyWlLk6GJQsqaUBKTNV-1" source="nKKaLAvIPDA7G_cPr7YH-4" target="nKKaLAvIPDA7G_cPr7YH-5">
          <mxGeometry relative="1" as="geometry" />
        </mxCell>
        <mxCell id="nKKaLAvIPDA7G_cPr7YH-17" value="" style="edgeStyle=orthogonalEdgeStyle;rounded=0;orthogonalLoop=1;jettySize=auto;html=1;" edge="1" parent="WIyWlLk6GJQsqaUBKTNV-1" source="nKKaLAvIPDA7G_cPr7YH-4" target="nKKaLAvIPDA7G_cPr7YH-13">
          <mxGeometry relative="1" as="geometry" />
        </mxCell>
        <mxCell id="nKKaLAvIPDA7G_cPr7YH-4" value="After user login, app serves dashboard for searching and adding documents" style="rounded=1;whiteSpace=wrap;html=1;fontSize=12;glass=0;strokeWidth=1;shadow=0;" vertex="1" parent="WIyWlLk6GJQsqaUBKTNV-1">
          <mxGeometry x="370" y="80" width="140" height="70" as="geometry" />
        </mxCell>
        <mxCell id="nKKaLAvIPDA7G_cPr7YH-15" value="" style="edgeStyle=orthogonalEdgeStyle;rounded=0;orthogonalLoop=1;jettySize=auto;html=1;" edge="1" parent="WIyWlLk6GJQsqaUBKTNV-1" source="nKKaLAvIPDA7G_cPr7YH-5" target="nKKaLAvIPDA7G_cPr7YH-14">
          <mxGeometry relative="1" as="geometry" />
        </mxCell>
        <mxCell id="nKKaLAvIPDA7G_cPr7YH-5" value="&lt;div&gt;User uploads a new document&lt;/div&gt;&lt;div&gt;(image or PDF)&lt;/div&gt;" style="rounded=1;whiteSpace=wrap;html=1;fontSize=12;glass=0;strokeWidth=1;shadow=0;" vertex="1" parent="WIyWlLk6GJQsqaUBKTNV-1">
          <mxGeometry x="580" y="90" width="130" height="50" as="geometry" />
        </mxCell>
        <mxCell id="nKKaLAvIPDA7G_cPr7YH-20" value="" style="edgeStyle=orthogonalEdgeStyle;rounded=0;orthogonalLoop=1;jettySize=auto;html=1;" edge="1" parent="WIyWlLk6GJQsqaUBKTNV-1" source="nKKaLAvIPDA7G_cPr7YH-6" target="nKKaLAvIPDA7G_cPr7YH-12">
          <mxGeometry relative="1" as="geometry" />
        </mxCell>
        <mxCell id="nKKaLAvIPDA7G_cPr7YH-6" value="Analyze plain-text with ML algorithms for entity, location, person and document title " style="rounded=1;whiteSpace=wrap;html=1;fontSize=12;glass=0;strokeWidth=1;shadow=0;" vertex="1" parent="WIyWlLk6GJQsqaUBKTNV-1">
          <mxGeometry x="575" y="280" width="140" height="70" as="geometry" />
        </mxCell>
        <mxCell id="nKKaLAvIPDA7G_cPr7YH-21" style="edgeStyle=orthogonalEdgeStyle;rounded=0;orthogonalLoop=1;jettySize=auto;html=1;entryX=1;entryY=0.5;entryDx=0;entryDy=0;" edge="1" parent="WIyWlLk6GJQsqaUBKTNV-1" source="nKKaLAvIPDA7G_cPr7YH-12" target="nKKaLAvIPDA7G_cPr7YH-13">
          <mxGeometry relative="1" as="geometry" />
        </mxCell>
        <mxCell id="nKKaLAvIPDA7G_cPr7YH-12" value="Store document data in ElasticSearch" style="rounded=1;whiteSpace=wrap;html=1;fontSize=12;glass=0;strokeWidth=1;shadow=0;" vertex="1" parent="WIyWlLk6GJQsqaUBKTNV-1">
          <mxGeometry x="580" y="390" width="130" height="50" as="geometry" />
        </mxCell>
        <mxCell id="nKKaLAvIPDA7G_cPr7YH-18" value="" style="edgeStyle=orthogonalEdgeStyle;rounded=0;orthogonalLoop=1;jettySize=auto;html=1;" edge="1" parent="WIyWlLk6GJQsqaUBKTNV-1" source="nKKaLAvIPDA7G_cPr7YH-13" target="nKKaLAvIPDA7G_cPr7YH-16">
          <mxGeometry relative="1" as="geometry" />
        </mxCell>
        <mxCell id="nKKaLAvIPDA7G_cPr7YH-13" value="User searches by text or tag(s)" style="rounded=1;whiteSpace=wrap;html=1;fontSize=12;glass=0;strokeWidth=1;shadow=0;" vertex="1" parent="WIyWlLk6GJQsqaUBKTNV-1">
          <mxGeometry x="375" y="190" width="130" height="50" as="geometry" />
        </mxCell>
        <mxCell id="nKKaLAvIPDA7G_cPr7YH-19" value="" style="edgeStyle=orthogonalEdgeStyle;rounded=0;orthogonalLoop=1;jettySize=auto;html=1;" edge="1" parent="WIyWlLk6GJQsqaUBKTNV-1" source="nKKaLAvIPDA7G_cPr7YH-14" target="nKKaLAvIPDA7G_cPr7YH-6">
          <mxGeometry relative="1" as="geometry" />
        </mxCell>
        <mxCell id="nKKaLAvIPDA7G_cPr7YH-14" value="Tesseract OCR converts document to plain-text" style="rounded=1;whiteSpace=wrap;html=1;fontSize=12;glass=0;strokeWidth=1;shadow=0;" vertex="1" parent="WIyWlLk6GJQsqaUBKTNV-1">
          <mxGeometry x="580" y="185" width="130" height="60" as="geometry" />
        </mxCell>
        <mxCell id="nKKaLAvIPDA7G_cPr7YH-16" value="React application displays list of documents matching criteria" style="rounded=1;whiteSpace=wrap;html=1;fontSize=12;glass=0;strokeWidth=1;shadow=0;" vertex="1" parent="WIyWlLk6GJQsqaUBKTNV-1">
          <mxGeometry x="375" y="280" width="130" height="70" as="geometry" />
        </mxCell>
      </root>
    </mxGraphModel>
  </diagram>
</mxfile>
